#!OML:ASF F:\VICON\USERDATA\INSTALL\rory3\rory3.ASF
:FULLY-SPECIFIED
:DEGREES
148
root 3.79144 14.9268 12.9492 -162.598 9.24824 185.186
lowerback 3.29098 12.2566 4.85141
upperback -7.80971 17.236 -2.33898
thorax -7.99585 8.3018 -6.50455
lowerneck -15.8241 1.77358 -1.19109
upperneck 19.0272 2.37298 0.627796
head 8.51598 0.998099 0.674845
rclavicle 5.51006e-014 -5.36719e-015
rhumerus 142.697 -41.9235 177.046
rradius 15.331
rwrist 124.439
rhand -18.4335 16.772
rfingers 7.12502
rthumb 7.85196 -13.0622
lclavicle 5.51006e-014 -5.36719e-015
lhumerus -10.2156 48.6258 8.03312
lradius 16.1677
lwrist -34.3521
lhand -10.1401 36.1291
lfingers 7.12502
lthumb 15.8488 65.5005
rfemur -48.5355 8.88927 14.1815
rtibia 66.0335
rfoot -26.829 -15.0891
rtoes -34.7074
lfemur -59.0345 18.3608 -14.6177
ltibia 73.4732
lfoot -27.1738 13.9214
ltoes -25.5811
149
root 3.6861 14.9397 12.9206 -162.332 10.855 185.034
lowerback 3.19459 11.791 4.46618
upperback -7.83807 16.6023 -2.09331
thorax -8.22667 8.00766 -6.05212
lowerneck -15.9346 2.65797 -1.06144
upperneck 19.032 3.56326 0.638265
head 8.52665 1.56914 0.79877
rclavicle -1.97691e-013 -3.35946e-014
rhumerus 146.434 -42.5238 174.618
rradius 15.4661
rwrist 127.087
rhand -18.1511 15.8312
rfingers 7.12502
rthumb 8.12453 -13.9926
lclavicle -1.97691e-013 -3.35946e-014
lhumerus -8.83656 48.5817 10.4815
lradius 16.2505
lwrist -34.3754
lhand -10.989 35.9794
lfingers 7.12502
lthumb 15.0311 65.4138
rfemur -48.9187 10.1311 13.0815
rtibia 65.445
rfoot -26.9262 -15.0572
rtoes -34.6174
lfemur -58.8114 18.668 -15.4059
ltibia 73.4055
lfoot -27.8496 14.7353
ltoes -24.8311
150
root 3.58242 14.977 12.8793 -162.227 12.9358 184.766
lowerback 2.9903 11.5118 3.90905
upperback -7.7955 16.1755 -1.95458
thorax -8.2965 7.83202 -5.58507
lowerneck -15.8032 3.52219 -0.555659
upperneck 18.8704 4.70029 0.307907
head 8.45853 2.10916 0.734502
rclavicle 1.11953e-013 9.93923e-015
rhumerus 150.739 -43.3009 172.017
rradius 14.8021
rwrist 129.077
rhand -18.1525 14.0535
rfingers 7.12502
rthumb 8.12312 -15.7704
lclavicle 1.11953e-013 9.93923e-015
lhumerus -6.85432 47.9264 13.5317
lradius 16.3183
lwrist -33.8398
lhand -12.4451 36.6628
lfingers 7.12502
lthumb 13.628 66.1967
rfemur -49.0928 11.7868 11.6904
rtibia 64.5656
rfoot -26.6454 -15.1262
rtoes -34.985
lfemur -58.0941 19.2226 -16.3512
ltibia 73.0843
lfoot -28.5882 15.7411
ltoes -24.4853
151
root 3.47792 15.0163 12.8398 -162.079 15.0508 184.685
lowerback 2.87698 11.2365 3.58805
upperback -7.96814 15.8105 -1.87156
thorax -8.56619 7.66625 -5.34116
lowerneck -15.1567 4.45175 0.563569
upperneck 18.691 5.85197 -0.452748
head 8.337 2.65228 0.415962
rclavicle -3.76448e-015 -9.54166e-015
rhumerus 155.133 -45.4686 169.518
rradius 13.9084
rwrist 130.075
rhand -17.2831 12.4801
rfingers 7.12502
rthumb 8.96213 -17.3095
lclavicle -3.76448e-015 -9.54166e-015
lhumerus -4.87123 45.8659 16.3612
lradius 16.3995
lwrist -32.6119
lhand -13.3572 36.9505
lfingers 7.12502
lthumb 12.7489 66.5413
rfemur -49.2134 13.657 10.3937
rtibia 63.4189
rfoot -26.2838 -15.0859
rtoes -35.1049
lfemur -57.4271 19.7693 -17.0732
ltibia 72.7034
lfoot -29.2916 16.4447
ltoes -22.9054
152
root 3.35775 15.0646 12.8006 -161.885 17.0745 184.584
lowerback 2.87993 10.9341 3.53918
upperback -8.29097 15.4536 -1.87033
thorax -8.97377 7.48112 -5.35586
lowerneck -14.4222 5.30079 1.43575
upperneck 18.6565 6.90835 -0.986257
head 8.25263 3.153 0.199758
rclavicle -2.98488e-014 1.63003e-014
rhumerus 159.662 -49.002 166.92
rradius 13.4411
rwrist 129.765
rhand -15.7103 11.1074
rfingers 7.12502
rthumb 10.4796 -18.6114
lclavicle -2.98488e-014 1.63003e-014
lhumerus -2.64913 43.8769 19.4091
lradius 16.557
lwrist -31.281
lhand -13.4643 36.2928
lfingers 7.12502
lthumb 12.6456 65.89
rfemur -49.2328 15.2705 8.98885
rtibia 61.9095
rfoot -25.632 -14.872
rtoes -35.2139
lfemur -56.9361 20.0283 -17.8881
ltibia 72.2215
lfoot -29.7756 17.8018
ltoes -22.3662
153
root 3.22282 15.1512 12.7568 -161.574 19.2043 184.686
lowerback 2.75343 10.6169 3.82528
upperback -8.47798 15.0868 -1.73655
thorax -9.11066 7.28615 -5.34084
lowerneck -13.8313 6.11485 1.93797
upperneck 18.4529 8.01084 -1.48971
head 8.13686 3.65994 0.0583095
rclavicle -4.68076e-015 4.96962e-015
rhumerus 164.49 -52.1128 163.947
rradius 13.3387
rwrist 129.208
rhand -14.6869 11.2102
rfingers 7.12502
rthumb 11.4667 -18.4562
lclavicle -4.68076e-015 4.96962e-015
lhumerus 0.0148885 49.0417 22.9589
lradius 15.8154
lwrist -37.5874
lhand -12.492 32.4688
lfingers 7.12502
lthumb 13.5829 62.0057
rfemur -49.1274 16.7769 7.75129
rtibia 59.9805
rfoot -24.304 -15.0802
rtoes -37.1224
lfemur -56.4213 20.3017 -18.5219
ltibia 71.5143
lfoot -30.3727 19.2153
ltoes -21.9096
154
root 3.08085 15.2655 12.7016 -161.121 21.5056 184.991
lowerback 2.61029 10.2403 4.26303
upperback -8.6529 14.6627 -1.46687
thorax -9.23364 7.05867 -5.25516
lowerneck -13.1576 6.95821 2.29353
upperneck 18.0578 9.1826 -1.95867
head 7.94748 4.20195 -0.0489681
rclavicle 1.95368e-015 -1.59028e-015
rhumerus 169.448 -56.0404 160.784
rradius 13.1359
rwrist 127.701
rhand -14.3217 11.8069
rfingers 7.12502
rthumb 11.8189 -17.8396
lclavicle 1.95368e-015 -1.59028e-015
lhumerus 1.20755 44.0877 25.4911
lradius 16.2566
lwrist -32.3368
lhand -14.3256 34.6698
lfingers 7.12502
lthumb 11.8151 64.3165
rfemur -48.941 18.2988 6.62247
rtibia 57.7199
rfoot -23.2355 -14.5224
rtoes -37.5849
lfemur -55.6831 20.6508 -18.9717
ltibia 70.5075
lfoot -31.1062 20.3748
ltoes -21.622
155
root 2.94147 15.3788 12.6384 -160.606 24.2522 185.222
lowerback 2.47738 9.91098 4.43037
upperback -8.91132 14.2964 -1.20915
thorax -9.51387 6.87214 -5.07104
lowerneck -12.694 7.74688 2.60733
upperneck 17.8935 10.2652 -2.32577
head 7.8728 4.70156 -0.117324
rclavicle -1.66389e-013 -5.52621e-014
rhumerus 175.026 -62.1628 156.857
rradius 12.4712
rwrist 123.403
rhand -13.6613 9.2764
rfingers 7.12502
rthumb 12.4556 -20.3324
lclavicle -1.66389e-013 -5.52621e-014
lhumerus 2.30036 42.3307 27.7657
lradius 16.4223
lwrist -31.4335
lhand -14.5692 34.7905
lfingers 7.12502
lthumb 11.5802 64.4506
rfemur -48.9692 19.752 5.27617
rtibia 55.3697
rfoot -22.234 -13.2132
rtoes -37.136
lfemur -54.6765 21.259 -19.7019
ltibia 69.1597
lfoot -31.925 21.578
ltoes -20.6636
156
root 2.79801 15.4864 12.5648 -160.093 27.4055 185.456
lowerback 2.3425 9.68608 4.53792
upperback -9.20851 14.0729 -0.961549
thorax -9.83515 6.75917 -4.88025
lowerneck -12.993 8.51352 3.01772
upperneck 18.7147 11.2645 -2.53308
head 8.26382 5.13855 -0.104739
rclavicle -1.06893e-013 -3.18055e-014
rhumerus 183.34 -69.6075 149.809
rradius 12.229
rwrist 116.848
rhand -12.559 7.04045
rfingers 7.12502
rthumb 13.5183 -22.5008
lclavicle -1.06893e-013 -3.18055e-014
lhumerus 3.28043 40.5142 29.9776
lradius 16.6814
lwrist -30.9852
lhand -13.689 33.2825
lfingers 7.12502
lthumb 12.429 62.8929
rfemur -49.0635 20.9176 3.90521
rtibia 52.8081
rfoot -20.8057 -11.6386
rtoes -36.7509
lfemur -53.3531 22.1277 -20.6511
ltibia 67.5643
lfoot -33.0265 22.6149
ltoes -17.8171
157
root 2.66138 15.5825 12.4819 -159.569 30.6852 185.919
lowerback 2.21402 9.51275 4.91123
upperback -9.42478 13.9245 -0.68922
thorax -10.009 6.66805 -4.78527
lowerneck -13.4855 8.66743 3.57483
upperneck 19.7898 12.4903 -2.73302
head 8.80258 6.10256 0.00354259
rclavicle -1.15978e-013 -4.77083e-014
rhumerus 198.017 -75.5387 136.052
rradius 12.4962
rwrist 110.632
rhand -11.5573 7.7657
rfingers 7.12502
rthumb 14.4836 -21.7088
lclavicle -1.15978e-013 -4.77083e-014
lhumerus 4.55765 38.7882 32.4145
lradius 16.8481
lwrist -30.2348
lhand -14.8155 33.0049
lfingers 7.12502
lthumb 11.3427 62.6781
rfemur -49.2725 21.8951 2.84014
rtibia 50.3241
rfoot -19.3749 -9.36831
rtoes -34.9035
lfemur -51.5048 23.2177 -21.4991
ltibia 65.655
lfoot -34.9981 22.3295
ltoes -12.0234
158
root 2.52065 15.7608 12.3902 -158.935 34.0601 186.357
lowerback 1.94533 9.31796 5.36641
upperback -9.55305 13.7081 -0.529932
thorax -9.95956 6.54078 -4.79706
lowerneck -13.5793 9.46158 3.90156
upperneck 20.2533 13.5652 -2.70456
head 9.03619 6.62405 0.121218
rclavicle 1.44989e-014 7.15625e-015
rhumerus 201.029 -71.7028 134.274
rradius 12.9405
rwrist 114.094
rhand -11.3272 8.7481
rfingers 7.12502
rthumb 14.7052 -20.7104
lclavicle 1.44989e-014 7.15625e-015
lhumerus 6.34504 38.844 35.1202
lradius 16.6842
lwrist -31.1668
lhand -15.4028 32.3563
lfingers 7.12502
lthumb 10.7762 62.0598
rfemur -49.2007 22.1989 2.02523
rtibia 47.3167
rfoot -17.4184 -6.35007
rtoes -34.4551
lfemur -50.1169 24.1604 -22.3678
ltibia 63.5921
lfoot -35.5443 24.2303
ltoes -13.2055
